<?xml version="1.0" standalone="no"?>
<!DOCTYPE svg PUBLIC "-//W3C//DTD SVG 20010904//EN"
 "http://www.w3.org/TR/2001/REC-SVG-20010904/DTD/svg10.dtd">
<svg version="1.0" xmlns="http://www.w3.org/2000/svg"
 width="204.000000pt" height="204.000000pt" viewBox="0 0 204.000000 204.000000"
 preserveAspectRatio="xMidYMid meet">
<metadata>
Created by potrace 1.14, written by Peter Selinger 2001-2017
</metadata>
<g transform="translate(0.000000,204.000000) scale(0.100000,-0.100000)"
fill="#000000" stroke="none">
<path d="M870 1853 c-177 -27 -343 -108 -470 -233 -87 -85 -114 -120 -158
-205 -77 -150 -97 -233 -96 -405 1 -138 20 -242 58 -315 9 -17 16 -35 16 -40
0 -6 16 -34 35 -64 19 -29 35 -56 35 -61 0 -4 37 -46 83 -93 180 -185 383
-269 636 -263 174 5 318 51 461 149 39 27 165 148 196 188 49 66 128 234 139
301 3 18 10 51 15 73 13 58 9 228 -7 298 -42 181 -109 304 -232 428 -36 36
-88 80 -114 98 -49 33 -177 100 -206 106 -9 3 -50 13 -91 23 -70 18 -229 26
-300 15z"/>
</g>
</svg>
